<svg width="100" height="125.00000000000001" xmlns="http://www.w3.org/2000/svg" data-name="Layer 4">

 <g>
  <title>Layer 1</title>
  <path id="svg_1" d="m37.60011,62.09368a1,1 0 0 0 -1.25,0.59l-0.4,1.1a1,1 0 0 0 0.59,1.25a1,1 0 0 0 0.33,0.06a1,1 0 0 0 0.9,-0.65l0.4,-1.1a1,1 0 0 0 -0.57,-1.25z"/>
  <path id="svg_2" d="m26.20011,58.44368a1,1 0 0 0 -1,1l0,1a1,1 0 0 0 0.94,1l0,0a1,1 0 0 0 1,-0.94l0,-1a1,1 0 0 0 -0.94,-1.06z"/>
  <path id="svg_3" d="m52.97011,84.70368l-1.56,0a1,1 0 0 0 0,2l0,0l1.57,0a1,1 0 0 0 0.94,-1a1,1 0 0 0 -0.95,-1z"/>
  <path id="svg_4" d="m48.91011,74.01368l-0.76,0.27a1,1 0 0 0 0.33,1.9a1,1 0 0 0 0.33,-0.06l0.76,-0.27a1,1 0 1 0 -0.66,-1.84z"/>
  <path id="svg_5" d="m51.85011,48.28368a1,1 0 0 0 -1.25,0.59l-0.44,1.22a1,1 0 0 0 0.61,1.25a1,1 0 0 0 0.33,0.06a1,1 0 0 0 0.92,-0.65l0.44,-1.22a1,1 0 0 0 -0.61,-1.25z"/>
  <path id="svg_6" d="m40.91011,45.25368a1,1 0 0 0 -1,0.94l0,0.68a1,1 0 0 0 0.94,1l0,0a1,1 0 0 0 1,-0.94l0,-0.68a1,1 0 0 0 -0.94,-1z"/>
  <path id="svg_7" d="m66.58011,69.99368l-1.65,0a1,1 0 0 0 0,2l0,0l1.64,-0.06a1,1 0 0 0 0.95,-1a1,1 0 0 0 -0.94,-0.94z"/>
  <path id="svg_8" d="m64.47011,60.16368a1,1 0 0 0 -1.25,-0.59l-1.4,0.5a1,1 0 0 0 0.33,1.9a1,1 0 0 0 0.33,-0.06l1.4,-0.5a1,1 0 0 0 0.59,-1.25z"/>
  <path id="svg_9" d="m85.51011,56.23368a9.74,9.74 0 0 0 -2,-10.67a8.76,8.76 0 0 0 -1.41,-1.17a13.24,13.24 0 0 0 -14.86,-14.81a10.35,10.35 0 0 0 -1.16,-1.41a9.76,9.76 0 0 0 -10.68,-2a8.57,8.57 0 0 0 -12.05,12a9.62,9.62 0 0 0 -1.62,0.54a8.91,8.91 0 0 0 -12.52,12.54a10,10 0 0 0 -2.17,0.69a9.22,9.22 0 0 0 -11.58,-0.2c-4,3.12 -4.47,8.76 -1.18,13.44l0.1,0.13s2.9,3.78 5.26,7.57c0.79,1.27 1.61,2.74 2.4,4.16c1.73,3.11 3.36,6 5.18,7.87l0,0c1.81,1.81 4.74,3.43 7.83,5.15c1.44,0.79 2.92,1.61 4.2,2.41c3.49,2.18 6.9,4.72 7.57,5.23a10.5,10.5 0 0 0 6.49,2.38a8.81,8.81 0 0 0 6.7,-3.06l0,0a9.3,9.3 0 0 0 0.14,-12a10.72,10.72 0 0 0 0.7,-2.21a8.91,8.91 0 0 0 5.68,2.06l0.3,0a8.81,8.81 0 0 0 6.38,-3a9,9 0 0 0 0.18,-11.51a10.46,10.46 0 0 0 0.62,-1.72a8.58,8.58 0 0 0 4.86,1.5l0.29,0a8.52,8.52 0 0 0 6.13,-2.91a8.63,8.63 0 0 0 0.22,-11zm-29.13,37.61l0,0c-1.87,2.13 -4.61,1.56 -6.5,0.06l0,0c-0.16,-0.12 -4,-3 -8,-5.49c-1.38,-0.87 -2.92,-1.72 -4.41,-2.55c-2.67,-1.47 -5.42,-3 -6.76,-4.33l0,0c-1.38,-1.41 -2.94,-4.18 -4.4,-6.89c-0.82,-1.47 -1.67,-3 -2.53,-4.38c-2.33,-3.73 -5,-7.3 -5.47,-7.88l0,0c-1.45,-2.07 -2,-5.06 0.2,-6.78a4.39,4.39 0 0 1 5.46,0.11a6.14,6.14 0 0 1 0.51,0.51a3,3 0 0 0 3.86,0.58a5.63,5.63 0 0 1 7,0.75a5.42,5.42 0 0 1 1.12,1.61a3,3 0 0 0 3.31,1.61a9.54,9.54 0 0 1 11.58,11.55a3,3 0 0 0 1.62,3.39a5.59,5.59 0 0 1 2.36,8.11a3,3 0 0 0 0.58,3.82c0.13,0.11 0.26,0.24 0.38,0.36a4.37,4.37 0 0 1 0.09,5.84zm13.2,-15.2a4,4 0 0 1 -5.84,0.22a0.47,0.47 0 0 0 -0.1,-0.1c-0.57,-0.52 -2.47,-2.23 -4.15,-3.57a10.27,10.27 0 0 0 -1.46,-1.84a10.66,10.66 0 0 0 -1.66,-1.35a14.43,14.43 0 0 0 -16.27,-16.25a11.33,11.33 0 0 0 -1.33,-1.66a10.23,10.23 0 0 0 -2.26,-1.7a2.43,2.43 0 0 0 -0.29,-0.49c-1.57,-2 -2.87,-3.37 -2.92,-3.43s0,0 0,0a4,4 0 0 1 -1.16,-3.07a4,4 0 0 1 6.62,-2.85a3.55,3.55 0 0 1 0.47,0.48a3,3 0 0 0 3.83,0.57a5.23,5.23 0 0 1 6.51,0.7a5.3,5.3 0 0 1 1.05,1.49a3,3 0 0 0 3.37,1.62a9,9 0 0 1 10.78,10.81a2.94,2.94 0 0 0 1.62,3.36a5.3,5.3 0 0 1 1.48,1.06a5.22,5.22 0 0 1 0.7,6.51a3,3 0 0 0 0.58,3.83l0.35,0.33a4,4 0 0 1 0.08,5.33zm12,-14.66a3.65,3.65 0 0 1 -5.33,0.19l-0.06,-0.05c0,-0.06 -1.35,-1.26 -3.22,-2.72a9.78,9.78 0 0 0 -1.68,-2.25a10.36,10.36 0 0 0 -1.52,-1.24a13.86,13.86 0 0 0 -15.56,-15.57a10.33,10.33 0 0 0 -1.26,-1.54a10.17,10.17 0 0 0 -2.53,-1.84l-0.14,-0.22c-1.51,-1.92 -2.76,-3.25 -2.81,-3.31a0.12,0.12 0 0 1 -0.05,-0.05a3.68,3.68 0 0 1 0.36,-5.5a3.71,3.71 0 0 1 4.62,0.09a4.44,4.44 0 0 1 0.43,0.44a2.91,2.91 0 0 0 3.79,0.57a4.82,4.82 0 0 1 6,0.64a4.73,4.73 0 0 1 1,1.38a2.91,2.91 0 0 0 3.3,1.64a8.36,8.36 0 0 1 10.11,10.07a2.92,2.92 0 0 0 1.6,3.33a4.92,4.92 0 0 1 1.38,1a4.84,4.84 0 0 1 0.65,6a2.91,2.91 0 0 0 0.56,3.79c0.11,0.09 0.22,0.2 0.32,0.3a3.69,3.69 0 0 1 0.08,4.88l-0.04,-0.03z"/>
  <path stroke="null" style="vector-effect: non-scaling-stroke;" id="svg_10" d="m65.04011,35.08368a1,1 0 0 0 -1.27,0.56l-0.49,1.37a1,1 0 0 0 0.59,1.25a1,1 0 0 0 0.33,0.06a1,1 0 0 0 0.92,-0.65l0.49,-1.37a1,1 0 0 0 -0.57,-1.22z"/>
  <path id="svg_11" d="m54.61011,31.99368a1,1 0 0 0 -1,0.94l0,1.08a1,1 0 0 0 0.94,1l0,0a1,1 0 0 0 1,-0.94l0,-1.08a1,1 0 0 0 -0.94,-1z"/>
  <path id="svg_12" d="m78.69011,55.97368l-1.3,0.05a1,1 0 0 0 0,1.95l0,0l1.29,0a1,1 0 0 0 -0.06,-2l0.07,0z"/>
  <path id="svg_13" d="m76.56011,46.69368a1,1 0 0 0 -1.25,-0.59l-1,0.35a1,1 0 0 0 -0.54,1.25a1,1 0 0 0 0.92,0.64a1,1 0 0 0 0.33,-0.05l1,-0.35a1,1 0 0 0 0.54,-1.25z"/>
 </g>
</svg>